<svg width="24" height="24" viewBox="0 0 24 24" fill="none" xmlns="http://www.w3.org/2000/svg">
<circle cx="12" cy="12" r="11.5" stroke="#E27410"/>
<path d="M12 4.7998C12.4971 4.7998 12.9 5.20275 12.9 5.6998V18.2998C12.9 18.7969 12.4971 19.1998 12 19.1998C11.503 19.1998 11.1 18.7969 11.1 18.2998V5.6998C11.1 5.20275 11.503 4.7998 12 4.7998Z" fill="#E27410"/>
<path d="M4.80005 11.9996C4.80005 11.5026 5.20299 11.0996 5.70005 11.0996H18.3001C18.7971 11.0996 19.2001 11.5026 19.2001 11.9996C19.2001 12.4967 18.7971 12.8996 18.3001 12.8996H5.70005C5.20299 12.8996 4.80005 12.4967 4.80005 11.9996Z" fill="#E27410"/>
</svg>
