<svg width="24" height="10" viewBox="0 0 24 10" fill="none" xmlns="http://www.w3.org/2000/svg">
<path d="M24 3.44973H22.713C22.0631 1.52055 20.2407 0.125488 18.0952 0.125488C15.9002 0.125488 14.041 1.58444 13.4323 3.58303C13.0473 3.32857 12.5535 3.17094 11.9997 3.17094C11.4461 3.17094 10.9524 3.32852 10.5673 3.58298C9.95852 1.58438 8.09896 0.125539 5.90404 0.125539C3.75858 0.125539 1.93624 1.5206 1.28649 3.44978H0V4.44977H1.0626C1.04213 4.6308 1.02929 4.81413 1.02929 5.00054C1.02929 7.68855 3.21608 9.87504 5.90404 9.87504C8.59199 9.87504 10.779 7.6885 10.779 5.00054C10.779 4.97251 10.7753 4.94545 10.7748 4.91752H10.7783C10.7783 4.56448 11.28 4.17093 11.9998 4.17093C12.7197 4.17093 13.2212 4.56448 13.2212 4.91752H13.2249C13.2244 4.94539 13.2207 4.97251 13.2207 5.00054C13.2207 7.68855 15.4072 9.87504 18.0952 9.87504C20.7832 9.87504 22.9702 7.6885 22.9702 5.00054C22.9702 4.81413 22.9574 4.6308 22.9369 4.44977H24V3.44973ZM5.90404 8.87505C3.76757 8.87505 2.02927 7.13676 2.02927 5.00054C2.02927 2.86382 3.76757 1.12552 5.90404 1.12552C8.04076 1.12552 9.77905 2.86382 9.77905 5.00054C9.77905 7.13676 8.04076 8.87505 5.90404 8.87505ZM18.0953 8.87505C15.959 8.87505 14.2207 7.13676 14.2207 5.00054C14.2207 2.86382 15.959 1.12552 18.0953 1.12552C20.232 1.12552 21.9703 2.86382 21.9703 5.00054C21.9702 7.13676 20.2319 8.87505 18.0953 8.87505Z" fill="#E27410"/>
</svg>
