<svg width="16" height="16" viewBox="0 0 12 12" fill="none" xmlns="http://www.w3.org/2000/svg">
<g clip-path="url(#clip0_20_6506)">
<path d="M2.44521 7.97679C3.6288 9.39163 5.05358 10.5056 6.67977 11.2938C7.29892 11.5872 8.12693 11.9353 9.04943 11.995C9.10662 11.9975 9.16133 12 9.21852 12C9.83766 12 10.335 11.7862 10.7403 11.346C10.7428 11.3436 10.7477 11.3386 10.7502 11.3336C10.8944 11.1596 11.0586 11.0029 11.2301 10.8363C11.347 10.7244 11.4663 10.6075 11.5807 10.4882C12.1104 9.93618 12.1104 9.23498 11.5757 8.70037L10.0813 7.20597C9.82772 6.94239 9.52436 6.80315 9.20609 6.80315C8.88781 6.80315 8.58197 6.9424 8.32088 7.20348L7.4307 8.09366C7.34865 8.04642 7.2641 8.00414 7.18453 7.96436C7.08507 7.91463 6.99307 7.86738 6.91102 7.81517C6.10041 7.30046 5.36439 6.62909 4.66071 5.76627C4.30513 5.3162 4.06643 4.93825 3.89983 4.55284C4.13356 4.34148 4.35238 4.12018 4.56373 3.90385C4.63833 3.82677 4.71541 3.74969 4.79249 3.67261C5.06104 3.40406 5.20526 3.09324 5.20526 2.77746C5.20526 2.46167 5.06352 2.15085 4.79249 1.8823L4.05151 1.14132C3.96448 1.05429 3.88242 0.969747 3.79788 0.882719C3.63377 0.713634 3.4622 0.539577 3.29311 0.382926C3.037 0.131786 2.73613 0 2.41785 0C2.10207 0 1.79871 0.131786 1.53265 0.385412L0.602687 1.31538C0.264519 1.65354 0.0730558 2.06382 0.0332713 2.53875C-0.0139728 3.13303 0.0954346 3.76461 0.378899 4.52797C0.814042 5.70908 1.47049 6.80564 2.44521 7.97679ZM0.639985 2.59097C0.669823 2.26026 0.796636 1.98425 1.03534 1.74554L1.96033 0.820555C2.10455 0.68131 2.26369 0.6092 2.41785 0.6092C2.56953 0.6092 2.7237 0.68131 2.86543 0.825528C3.03203 0.979693 3.18868 1.14132 3.35776 1.31289C3.44231 1.39992 3.52933 1.48695 3.61636 1.57646L4.35735 2.31745C4.51151 2.47161 4.59108 2.62826 4.59108 2.78243C4.59108 2.93659 4.51151 3.09325 4.35735 3.24741C4.28027 3.32449 4.20318 3.40406 4.1261 3.48114C3.89485 3.71488 3.67853 3.93618 3.43982 4.14753C3.43485 4.15251 3.43236 4.15499 3.42739 4.15997C3.221 4.36635 3.25333 4.56278 3.30306 4.71198C3.30555 4.71944 3.30803 4.72441 3.31052 4.73187C3.50198 5.19188 3.76804 5.62951 4.18329 6.15168C4.92925 7.07169 5.71499 7.78533 6.58031 8.33485C6.68723 8.40448 6.80161 8.45918 6.90853 8.51388C7.00799 8.56361 7.09999 8.61086 7.18205 8.66307C7.19199 8.66805 7.19945 8.67302 7.2094 8.67799C7.29146 8.72027 7.37103 8.74016 7.45059 8.74016C7.64952 8.74016 7.77882 8.61334 7.82109 8.57107L8.75105 7.64111C8.89527 7.49689 9.05192 7.41981 9.20609 7.41981C9.39506 7.41981 9.54923 7.53668 9.6462 7.64111L11.1456 9.138C11.444 9.43639 11.4415 9.75964 11.1381 10.0754C11.0337 10.1873 10.9243 10.2942 10.8074 10.4061C10.6334 10.5752 10.4518 10.7493 10.2877 10.9457C10.0018 11.254 9.66112 11.3983 9.221 11.3983C9.17873 11.3983 9.13398 11.3958 9.0917 11.3933C8.27612 11.3411 7.51773 11.0228 6.94831 10.7518C5.40169 10.0033 4.04405 8.94157 2.91765 7.59387C1.99017 6.47741 1.36605 5.43804 0.953288 4.32408C0.697175 3.64028 0.6002 3.09076 0.639985 2.59097Z" fill="#E27410"/>
</g>
<defs>
<clipPath id="clip0_20_6506">
<rect width="16" height="12" fill="white"/>
</clipPath>
</defs>
</svg>
