<svg width="48" height="48" viewBox="0 0 48 48" fill="none" xmlns="http://www.w3.org/2000/svg">
<path d="M27.75 21.75C27.2325 21.75 26.8125 22.17 26.8125 22.6875C26.8125 23.205 27.2325 23.625 27.75 23.625C28.2675 23.625 28.6875 23.205 28.6875 22.6875C28.6875 22.17 28.2675 21.75 27.75 21.75Z" fill="white"/>
<path d="M24 16.125C23.4825 16.125 23.0625 16.545 23.0625 17.0625C23.0625 17.58 23.4825 18 24 18C24.5175 18 24.9375 17.58 24.9375 17.0625C24.9375 16.545 24.5175 16.125 24 16.125Z" fill="white"/>
<path d="M12.75 40.5C12.2325 40.5 11.8125 40.92 11.8125 41.4375C11.8125 41.955 12.2325 42.375 12.75 42.375C13.2675 42.375 13.6875 41.955 13.6875 41.4375C13.6875 40.92 13.2675 40.5 12.75 40.5Z" fill="white"/>
<path d="M42.6014 38.2198L30.5624 16.817V5.46431C31.6537 5.07741 32.4374 4.03481 32.4374 2.8125C32.4374 1.26169 31.1757 0 29.6249 0H18.3749C16.8241 0 15.5624 1.26169 15.5624 2.8125C15.5624 4.03481 16.3461 5.07741 17.4374 5.46431V16.817L5.39839 38.2198C4.24264 40.2744 4.26318 42.716 5.45314 44.7507C6.64302 46.7853 8.76064 48 11.1177 48H36.8821C39.2391 48 41.3567 46.7853 42.5466 44.7507C43.7366 42.716 43.7571 40.2744 42.6014 38.2198ZM19.192 17.5221C19.271 17.3818 19.3124 17.2235 19.3124 17.0625V5.625H20.2499C20.7676 5.625 21.1874 5.20519 21.1874 4.6875C21.1874 4.16981 20.7676 3.75 20.2499 3.75H18.3749C17.858 3.75 17.4374 3.32944 17.4374 2.8125C17.4374 2.29556 17.858 1.875 18.3749 1.875H29.6249C30.1418 1.875 30.5624 2.29556 30.5624 2.8125C30.5624 3.32944 30.1418 3.75 29.6249 3.75H27.7499C27.2322 3.75 26.8124 4.16981 26.8124 4.6875C26.8124 5.20519 27.2322 5.625 27.7499 5.625H28.6874V17.0625C28.6874 17.2236 28.7288 17.3817 28.8078 17.5221L34.3335 27.3458C30.959 27.0726 27.5961 27.7551 24.5065 29.3549C20.5347 31.4103 16.1132 31.7722 11.944 30.4074L19.192 17.5221ZM40.928 43.8041C40.0782 45.2573 38.5656 46.125 36.8821 46.125H11.1177C9.43414 46.125 7.92158 45.2573 7.07174 43.8041C6.22171 42.3507 6.20699 40.6067 7.03264 39.1389L11.0084 32.0709C12.9374 32.7445 14.9309 33.0846 16.9556 33.0846C17.2553 33.0846 17.5558 33.0772 17.8568 33.0622C20.4729 32.9327 23.0001 32.2456 25.3685 31.02C28.5365 29.3798 32.0209 28.8135 35.4731 29.3718L40.9672 39.1389C41.7928 40.6067 41.7782 42.3507 40.928 43.8041Z" fill="white"/>
<path d="M20.25 21.75C18.6992 21.75 17.4375 23.0117 17.4375 24.5625C17.4375 26.1133 18.6992 27.375 20.25 27.375C21.8008 27.375 23.0625 26.1133 23.0625 24.5625C23.0625 23.0117 21.8008 21.75 20.25 21.75ZM20.25 25.5C19.7331 25.5 19.3125 25.0794 19.3125 24.5625C19.3125 24.0456 19.7331 23.625 20.25 23.625C20.7669 23.625 21.1875 24.0456 21.1875 24.5625C21.1875 25.0794 20.7669 25.5 20.25 25.5Z" fill="white"/>
<path d="M35.25 40.5H16.5C15.9823 40.5 15.5625 40.9198 15.5625 41.4375C15.5625 41.9552 15.9823 42.375 16.5 42.375H35.25C35.7677 42.375 36.1875 41.9552 36.1875 41.4375C36.1875 40.9198 35.7677 40.5 35.25 40.5Z" fill="white"/>
</svg>
