<svg width="80" height="80" viewBox="0 0 80 80" fill="none" xmlns="http://www.w3.org/2000/svg">
<path d="M65.4643 2.84814H43.7768C43.6332 2.84806 43.4909 2.8763 43.3582 2.93123C43.2254 2.98617 43.1048 3.06673 43.0033 3.16831C42.9017 3.26989 42.8211 3.3905 42.7662 3.52324C42.7112 3.65597 42.683 3.79824 42.6831 3.94189V6.08189C41.9239 6.22674 41.2009 6.52053 40.5559 6.9463C39.9109 7.37206 39.3566 7.92137 38.925 8.56252C32.9378 8.71832 27.2478 11.2043 23.0656 15.4914C18.8834 19.7785 16.5392 25.5284 16.5318 31.5175V48.6988L15.6437 52.7913H14.5356C14.2455 52.7913 13.9673 52.9065 13.7622 53.1116C13.5571 53.3167 13.4418 53.5949 13.4418 53.885V76.0581C13.4418 76.3482 13.5571 76.6264 13.7622 76.8315C13.9673 77.0367 14.2455 77.1519 14.5356 77.1519H25.0625C25.2061 77.152 25.3484 77.1237 25.4811 77.0688C25.6139 77.0139 25.7345 76.9333 25.836 76.8317C25.9376 76.7301 26.0182 76.6095 26.0731 76.4768C26.1281 76.3441 26.1563 76.2018 26.1562 76.0581V53.885C26.1563 53.7414 26.1281 53.5991 26.0731 53.4664C26.0182 53.3336 25.9376 53.213 25.836 53.1114C25.7345 53.0099 25.6139 52.9293 25.4811 52.8744C25.3484 52.8194 25.2061 52.7912 25.0625 52.7913H23.9568L23.0687 48.6988V31.4919C23.0743 27.2348 24.7326 23.1461 27.6941 20.088C30.6557 17.0298 34.689 15.241 38.9437 15.0988C39.1056 15.3336 39.2846 15.556 39.4793 15.7644V20.2963C36.4946 20.5719 33.7202 21.9515 31.699 24.1649C29.6778 26.3783 28.5553 29.2664 28.5512 32.2638V72.9331C28.5524 74.0517 28.9972 75.1241 29.7881 75.915C30.579 76.7059 31.6514 77.1507 32.77 77.1519H54.7781C55.8966 77.1507 56.969 76.7059 57.7599 75.915C58.5508 75.1241 58.9957 74.0517 58.9968 72.9331V32.2638C58.9927 29.2662 57.87 26.378 55.8486 24.1645C53.8271 21.9511 51.0524 20.5716 48.0675 20.2963V15.7644C48.8002 14.971 49.2979 13.9894 49.505 12.9294C54.12 13.0934 58.6476 14.2357 62.7881 16.2806C63.0417 16.4215 63.3409 16.4559 63.6199 16.3762C63.8988 16.2965 64.1347 16.1093 64.2756 15.8556C64.4165 15.602 64.4509 15.3028 64.3712 15.0239C64.2914 14.7449 64.1042 14.509 63.8506 14.3681C60.9163 12.8722 57.7729 11.8277 54.5268 11.27L65.7593 8.12502C65.9891 8.06044 66.1915 7.92254 66.3357 7.73232C66.4799 7.5421 66.558 7.30997 66.5581 7.07127V3.94627C66.5587 3.80227 66.5308 3.65957 66.4761 3.52637C66.4214 3.39316 66.3409 3.27207 66.2393 3.17004C66.1377 3.06801 66.0169 2.98706 65.8839 2.93182C65.7509 2.87658 65.6083 2.84814 65.4643 2.84814ZM43.7768 8.16064C44.4996 8.16077 45.206 8.3752 45.8069 8.77682C46.4078 9.17844 46.8761 9.74922 47.1526 10.417C47.4291 11.0847 47.5014 11.8195 47.3603 12.5283C47.2192 13.2372 46.8711 13.8883 46.36 14.3993C45.8489 14.9103 45.1978 15.2583 44.4889 15.3992C43.7801 15.5402 43.0453 15.4678 42.3776 15.1912C41.7099 14.9146 41.1392 14.4462 40.7377 13.8452C40.3361 13.2443 40.1218 12.5378 40.1218 11.815C40.1235 10.8468 40.5088 9.91876 41.1935 9.23414C41.8781 8.54952 42.8061 8.16417 43.7743 8.16252L43.7768 8.16064ZM41.6706 20.2394V17.2594C43.024 17.7921 44.529 17.7921 45.8825 17.2594V20.2413L41.6706 20.2394ZM23.9706 74.9644H15.6293V54.9788H23.9706V74.9644ZM17.8825 52.7913L18.5075 49.91H21.0931L21.7181 52.7913H17.8825ZM20.8825 31.4919V47.7225H18.7193V31.5175C18.7262 26.2636 20.7208 21.2068 24.3023 17.3628C27.8838 13.5188 32.7871 11.1723 38.0275 10.7944C37.8941 11.5101 37.9003 12.2448 38.0456 12.9581C33.3782 13.323 29.0196 15.4331 25.8385 18.868C22.6574 22.3029 20.8874 26.8103 20.8812 31.4919H20.8825ZM56.8125 32.2638V72.9331C56.8118 73.4717 56.5976 73.9879 56.2168 74.3687C55.836 74.7495 55.3197 74.9637 54.7812 74.9644H32.77C32.2314 74.9637 31.7152 74.7495 31.3344 74.3687C30.9536 73.9879 30.7394 73.4717 30.7387 72.9331V32.2638C30.7417 29.6562 31.7789 27.1562 33.6228 25.3124C35.4667 23.4687 37.9667 22.4316 40.5743 22.4288H46.9737C49.5818 22.4308 52.0826 23.4675 53.9272 25.3113C55.7718 27.1552 56.8095 29.6556 56.8125 32.2638ZM64.375 6.23939L49.4406 10.4231C49.1723 9.33855 48.5992 8.35341 47.7889 7.58413C46.9787 6.81484 45.9651 6.29357 44.8681 6.08189V5.03564H64.3681L64.375 6.23939Z" fill="white"/>
<path d="M33.21 38.7717V58.6205C33.2099 58.7641 33.2381 58.9064 33.2931 59.0391C33.348 59.1719 33.4285 59.2925 33.5301 59.3941C33.6317 59.4956 33.7523 59.5762 33.8851 59.6311C34.0178 59.6861 34.1601 59.7143 34.3037 59.7142H53.2443C53.5344 59.7142 53.8126 59.599 54.0177 59.3939C54.2229 59.1888 54.3381 58.9106 54.3381 58.6205V38.7717C54.3381 38.4817 54.2229 38.2035 54.0177 37.9983C53.8126 37.7932 53.5344 37.678 53.2443 37.678H34.3068C34.1629 37.6775 34.0203 37.7054 33.8872 37.7602C33.7541 37.8149 33.6331 37.8954 33.5312 37.997C33.4293 38.0987 33.3485 38.2194 33.2933 38.3524C33.2382 38.4853 33.2099 38.6278 33.21 38.7717ZM35.3975 39.8655H52.1506V57.5267H35.4006L35.3975 39.8655Z" fill="white"/>
</svg>
