<svg width="80" height="80" viewBox="0 0 80 80" fill="none" xmlns="http://www.w3.org/2000/svg">
<g clip-path="url(#clip0_2234_1678)">
<path d="M37.3332 40.0003H42.6665C43.4029 40.0003 43.9999 39.4033 43.9999 38.667C43.9999 37.9306 43.4029 37.3336 42.6665 37.3336H37.3332C36.5968 37.3336 35.9999 37.9306 35.9999 38.667C35.9999 39.4033 36.5968 40.0003 37.3332 40.0003Z" fill="white"/>
<path d="M41.3333 41.3335H38.6666C37.9302 41.3335 37.3333 41.9304 37.3333 42.6668C37.3333 43.4032 37.9302 44.0002 38.6666 44.0002H41.3333C42.0696 44.0002 42.6666 43.4032 42.6666 42.6668C42.6666 41.9304 42.0696 41.3335 41.3333 41.3335Z" fill="white"/>
<path d="M38.6666 34.6669H41.3333C42.0696 34.6669 42.6666 34.07 42.6666 33.3336C42.6666 32.5972 42.0696 32.0002 41.3333 32.0002H38.6666C37.9302 32.0002 37.3333 32.5972 37.3333 33.3336C37.3333 34.07 37.9302 34.6669 38.6666 34.6669Z" fill="white"/>
<path d="M9.69325 59.0563C6.04792 62.699 4.26659 72.119 3.99992 77.2003C3.96337 77.9303 4.2281 78.6434 4.73222 79.1727C5.23633 79.702 5.93562 80.0012 6.66659 80.0003H73.3333C74.0642 80.0012 74.7635 79.702 75.2676 79.1727C75.7717 78.6434 76.0365 77.9303 75.9999 77.2003C75.7333 72.1176 73.9559 62.6976 70.3106 59.055C66.5493 55.299 54.5919 51.7216 51.6613 50.8923C50.8308 48.7657 50.3852 46.5083 50.3453 44.2256L53.7266 41.267C55.1729 39.9998 56.0016 38.1698 55.9999 36.2469V34.5336C59.099 33.901 61.3269 31.1779 61.3333 28.0149C61.3273 27.732 61.3037 27.4496 61.2626 27.1696L65.3959 25.5229C65.9315 25.3099 66.3501 24.8774 66.5457 24.3352C66.7412 23.7929 66.695 23.1928 66.4186 22.6869C65.4037 20.8264 64.0334 19.1833 62.3853 17.851L64.0706 17.4256C65.0399 17.1848 65.6754 16.2564 65.5493 15.2656C65.1564 13.1193 63.7431 11.2986 61.7613 10.3856L63.2493 9.39495C64.0266 8.86118 64.3301 7.85983 63.9799 6.98428C60.7226 -0.878384 48.6053 1.00828 46.8786 1.32162C42.4814 -0.428626 37.583 -0.440543 33.1773 1.28828C30.6426 0.868283 19.3973 -0.541051 16.2866 6.98695C15.9374 7.8691 16.2491 8.87541 17.0359 9.40562L18.5146 10.3843C16.5253 11.2963 15.1074 13.123 14.7173 15.2763C14.6039 16.27 15.2489 17.1924 16.2213 17.427L17.8866 17.847C16.2324 19.1845 14.857 20.8339 13.8386 22.7016C13.5694 23.2064 13.5276 23.8018 13.7234 24.3393C13.9193 24.8768 14.3344 25.3057 14.8653 25.5189L18.7466 27.0669C18.697 27.3801 18.6702 27.6965 18.6666 28.0136C18.6723 31.1771 20.9004 33.9009 23.9999 34.5336V36.2483C24.0001 38.1709 24.8302 39.9998 26.2773 41.2656L29.6586 44.2243C29.6187 46.507 29.1731 48.7643 28.3426 50.891C25.4119 51.7336 13.4546 55.3003 9.69325 59.0563ZM45.2186 77.3336L44.0373 64.3456L45.0253 62.863C46.0779 63.7094 47.5996 63.6249 48.5519 62.667L53.2746 57.9456L55.7973 61.4776L48.4786 77.3336H45.2186ZM31.5226 77.3336L24.2026 61.4669L26.7253 57.935L31.4479 62.667C32.4045 63.6143 33.9171 63.7001 34.9746 62.867L35.9626 64.3483L34.7813 77.3336H31.5226ZM41.9533 62.667H38.0466L36.9159 60.9696L39.9999 57.8856L43.0839 60.9696L41.9533 62.667ZM38.5506 65.3336H41.4493L42.5399 77.3336H37.4666L38.5506 65.3336ZM50.5079 54.0723L51.7079 55.7456L46.6666 60.7816L43.0213 57.1363C45.7597 56.8567 48.3592 55.7928 50.5079 54.0723ZM33.3333 60.7816L28.2973 55.7456L29.4973 54.0723C31.6456 55.7938 34.2452 56.8586 36.9839 57.139L33.3333 60.7816ZM6.66659 77.3416C6.97059 71.511 8.93325 63.5843 11.5773 60.9416C13.9479 58.5723 21.0319 55.959 25.9893 54.3843L22.0333 59.9243C21.4761 60.7032 21.3794 61.7211 21.7799 62.591L28.5853 77.3336H22.6666V74.667C22.6666 73.9306 22.0696 73.3336 21.3333 73.3336C20.5969 73.3336 19.9999 73.9306 19.9999 74.667V77.3403L6.66659 77.3416ZM73.3333 77.3336H59.9999V74.667C59.9999 73.9306 59.403 73.3336 58.6666 73.3336C57.9302 73.3336 57.3333 73.9306 57.3333 74.667V77.3336H51.4159L58.2159 62.5936C58.6172 61.7242 58.5215 60.7064 57.9653 59.927L54.0106 54.387C58.9679 55.9616 66.0519 58.575 68.4226 60.9443C71.0666 63.5843 73.0293 71.511 73.3333 77.3336ZM61.2786 7.50028L59.3053 8.81628C58.6939 9.22538 58.3565 9.93704 58.4267 10.6693C58.4969 11.4015 58.9634 12.0361 59.6413 12.3216C60.98 12.7892 62.0897 13.7502 62.7439 15.0083L60.3653 15.6083C59.5764 15.7913 58.9758 16.4319 58.8439 17.231C58.7102 18.0175 59.0639 18.8071 59.7399 19.231C61.3514 20.2795 62.7055 21.6783 63.7013 23.323L60.3999 24.6403C59.6907 23.4327 58.6171 22.481 57.3333 21.9216V16.0003C57.2801 11.0822 54.9019 6.47964 50.9213 3.59095C54.4293 3.46695 59.4106 3.97495 61.2786 7.50028ZM54.6666 16.0003V21.6256L50.5013 22.667H43.9999C43.3472 22.6692 42.7184 22.9129 42.2346 23.351C40.8844 22.4388 39.1154 22.4388 37.7653 23.351C37.2814 22.9129 36.6526 22.6692 35.9999 22.667H29.4986L25.3333 21.6256V16.0003C25.3541 12.4094 26.8982 8.99619 29.5813 6.60962C32.4371 4.03572 36.1556 2.62856 39.9999 2.66695C48.0866 2.66695 54.6666 8.64828 54.6666 16.0003ZM50.6666 25.3336V28.0003C50.6666 28.7367 50.0696 29.3336 49.3333 29.3336H45.3333C44.5969 29.3336 43.9999 28.7367 43.9999 28.0003V25.3336H50.6666ZM29.3333 25.3336H35.9999V28.0003C35.9999 28.7367 35.403 29.3336 34.6666 29.3336H30.6666C29.9302 29.3336 29.3333 28.7367 29.3333 28.0003V25.3336ZM16.5653 23.3256C17.5586 21.6839 18.9094 20.2875 20.5173 19.2403C21.1911 18.8127 21.5463 18.0253 21.4208 17.2372C21.2953 16.449 20.7133 15.8108 19.9399 15.6136L17.5173 15.003C18.1831 13.7354 19.3106 12.7721 20.6666 12.3123C21.3285 12.0178 21.7793 11.3884 21.8453 10.667C21.9132 9.93068 21.5756 9.21565 20.9639 8.80028L18.9893 7.49228C20.8039 4.06562 25.5599 3.49228 29.0479 3.58028C28.6088 3.91095 28.1857 4.26295 27.7786 4.63628C24.5399 7.52777 22.6817 11.6587 22.6666 16.0003V21.9216C21.4146 22.4684 20.3628 23.3898 19.6559 24.559L16.5653 23.3256ZM26.6666 36.2469V33.3336C26.6666 32.5972 26.0696 32.0003 25.3333 32.0003C23.1293 32.0003 21.3406 30.2175 21.3333 28.0136C21.3339 27.5856 21.4041 27.1605 21.5413 26.7549C21.5413 26.7443 21.5413 26.7336 21.5413 26.7243C21.9767 25.4574 23.0215 24.4953 24.3199 24.1656C24.3373 24.1656 24.3506 24.1483 24.3679 24.143L26.6666 24.7083V28.0003C26.6666 30.2094 28.4574 32.0003 30.6666 32.0003H34.6666C36.8757 32.0003 38.6666 30.2094 38.6666 28.0003V26.667C38.6666 25.9306 39.2635 25.3336 39.9999 25.3336C40.7363 25.3336 41.3333 25.9306 41.3333 26.667V28.0003C41.3333 30.2094 43.1241 32.0003 45.3333 32.0003H49.3333C51.5424 32.0003 53.3333 30.2094 53.3333 28.0003V24.7083L55.6226 24.1363C55.6399 24.1363 55.6533 24.1549 55.6706 24.1589C57.6189 24.6567 58.8905 26.5288 58.6351 28.5235C58.3797 30.5181 56.6775 32.0094 54.6666 32.0003C53.9302 32.0003 53.3333 32.5972 53.3333 33.3336V36.2469C53.3332 37.4006 52.835 38.4981 51.9666 39.2576L44.6333 45.6776C43.9042 46.3154 42.9685 46.6669 41.9999 46.667H37.9999C37.0313 46.6669 36.0956 46.3154 35.3666 45.6776L28.0333 39.2576C27.1648 38.4981 26.6667 37.4006 26.6666 36.2469ZM33.6133 47.6843C34.8277 48.7468 36.3863 49.3328 37.9999 49.3336H41.9999C43.6149 49.3338 45.1751 48.7477 46.3906 47.6843L47.8253 46.4283C48.0249 48.2517 48.4611 50.0414 49.1226 51.7523C48.1439 52.707 45.4773 54.667 39.9999 54.667C34.5226 54.667 31.8466 52.7003 30.8813 51.7536C31.5428 50.0423 31.9789 48.2521 32.1786 46.4283L33.6133 47.6843Z" fill="white"/>
<path d="M35.9999 17.3336H29.3333C28.5969 17.3336 27.9999 17.9306 27.9999 18.667C27.9999 19.4033 28.5969 20.0003 29.3333 20.0003H35.9999C36.7363 20.0003 37.3333 19.4033 37.3333 18.667C37.3333 17.9306 36.7363 17.3336 35.9999 17.3336Z" fill="white"/>
<path d="M42.6666 18.667C42.6666 19.4033 43.2635 20.0003 43.9999 20.0003H50.6666C51.4029 20.0003 51.9999 19.4033 51.9999 18.667C51.9999 17.9306 51.4029 17.3336 50.6666 17.3336H43.9999C43.2635 17.3336 42.6666 17.9306 42.6666 18.667Z" fill="white"/>
<path d="M35.9999 13.3334H43.9999C44.7363 13.3334 45.3332 12.7365 45.3332 12.0001C45.3332 11.2637 44.7363 10.6667 43.9999 10.6667H35.9999C35.2635 10.6667 34.6666 11.2637 34.6666 12.0001C34.6666 12.7365 35.2635 13.3334 35.9999 13.3334Z" fill="white"/>
<path d="M35.9999 9.33354H38.6666C39.4029 9.33354 39.9999 8.73658 39.9999 8.0002C39.9999 7.26382 39.4029 6.66687 38.6666 6.66687H35.9999C35.2635 6.66687 34.6666 7.26382 34.6666 8.0002C34.6666 8.73658 35.2635 9.33354 35.9999 9.33354Z" fill="white"/>
</g>
<defs>
<clipPath id="clip0_2234_1678">
<rect width="80" height="80" fill="white"/>
</clipPath>
</defs>
</svg>
