<svg width="30" height="30" viewBox="0 0 30 30" fill="none" xmlns="http://www.w3.org/2000/svg">
<g clip-path="url(#clip0_2244_2221)">
<path d="M15 29.625C23.0772 29.625 29.625 23.0772 29.625 15C29.625 6.92284 23.0772 0.375 15 0.375C6.92284 0.375 0.375 6.92284 0.375 15C0.375 23.0772 6.92284 29.625 15 29.625Z" stroke="#E27410"/>
<path d="M19.1702 15C19.1702 15.215 19.0881 15.4301 18.9242 15.5941L13.7645 20.7538C13.4362 21.082 12.9041 21.082 12.5759 20.7538C12.2479 20.4257 12.2479 19.8936 12.5759 19.5654L17.1416 15L12.5761 10.4346C12.248 10.1063 12.248 9.57437 12.5761 9.24632C12.9042 8.91789 13.4363 8.91789 13.7646 9.24632L18.9244 14.4059C19.0883 14.57 19.1702 14.785 19.1702 15Z" fill="#E27410"/>
</g>
<defs>
<clipPath id="clip0_2244_2221">
<rect width="30" height="30" fill="white"/>
</clipPath>
</defs>
</svg>
