<svg width="124" height="124" viewBox="0 0 124 124" fill="none" xmlns="http://www.w3.org/2000/svg">
<path d="M63.9887 15.2772C66.5737 12.6921 70.7649 12.6921 73.35 15.2772L122.061 63.9884C124.646 66.5735 124.646 70.7647 122.061 73.3497L73.35 122.061C70.7649 124.646 66.5737 124.646 63.9887 122.061L15.2774 73.3497C12.6924 70.7647 12.6924 66.5735 15.2774 63.9884L63.9887 15.2772Z" fill="url(#paint0_linear_33_1216)"/>
<g opacity="0.3">
<path d="M57.2984 8.36981C59.895 5.77322 64.1049 5.77321 66.7015 8.36981L115.63 57.2985C118.227 59.8951 118.227 64.105 115.63 66.7016L66.7015 115.63C64.1049 118.227 59.895 118.227 57.2984 115.63L8.36975 66.7016C5.77316 64.105 5.77315 59.8951 8.36975 57.2985L57.2984 8.36981Z" fill="#E27410"/>
<path d="M57.2984 8.36981C59.895 5.77322 64.1049 5.77321 66.7015 8.36981L115.63 57.2985C118.227 59.8951 118.227 64.105 115.63 66.7016L66.7015 115.63C64.1049 118.227 59.895 118.227 57.2984 115.63L8.36975 66.7016C5.77316 64.105 5.77315 59.8951 8.36975 57.2985L57.2984 8.36981Z" fill="url(#paint1_linear_33_1216)"/>
</g>
<g opacity="0.15">
<path d="M50.65 1.93879C53.2351 -0.646262 57.4263 -0.646264 60.0113 1.93879L108.723 50.65C111.308 53.2351 111.308 57.4263 108.723 60.0113L60.0113 108.723C57.4263 111.308 53.2351 111.308 50.65 108.723L1.93879 60.0113C-0.646262 57.4263 -0.646264 53.2351 1.93879 50.65L50.65 1.93879Z" fill="#E27410"/>
<path d="M50.65 1.93879C53.2351 -0.646262 57.4263 -0.646264 60.0113 1.93879L108.723 50.65C111.308 53.2351 111.308 57.4263 108.723 60.0113L60.0113 108.723C57.4263 111.308 53.2351 111.308 50.65 108.723L1.93879 60.0113C-0.646262 57.4263 -0.646264 53.2351 1.93879 50.65L50.65 1.93879Z" fill="url(#paint2_linear_33_1216)"/>
</g>
<path d="M76.0199 48.2727H67.9261L57.8438 54.6562V62.2926L67.1705 56.446H67.4091V89H76.0199V48.2727Z" fill="white"/>
<defs>
<linearGradient id="paint0_linear_33_1216" x1="13.3387" y1="57.5107" x2="127.372" y2="57.5107" gradientUnits="userSpaceOnUse">
<stop stop-color="#014C88"/>
<stop offset="0.473958" stop-color="#015DA0"/>
<stop offset="1" stop-color="#026AB3"/>
</linearGradient>
<linearGradient id="paint1_linear_33_1216" x1="6.4223" y1="50.7919" x2="120.964" y2="50.7919" gradientUnits="userSpaceOnUse">
<stop stop-color="#014C88"/>
<stop offset="0.473958" stop-color="#015DA0"/>
<stop offset="1" stop-color="#026AB3"/>
</linearGradient>
<linearGradient id="paint2_linear_33_1216" x1="1.46771e-07" y1="44.1723" x2="114.033" y2="44.1723" gradientUnits="userSpaceOnUse">
<stop stop-color="#014C88"/>
<stop offset="0.473958" stop-color="#015DA0"/>
<stop offset="1" stop-color="#026AB3"/>
</linearGradient>
</defs>
</svg>
